<svg width="169" height="75" viewBox="0 0 169 75" fill="none" xmlns="http://www.w3.org/2000/svg">
<path d="M29.6106 9.04C28.4106 8.13333 27.064 7.50667 25.5706 7.16C24.104 6.81333 22.624 6.64 21.1306 6.64H16.7706C15.224 6.64 13.7706 6.81333 12.4106 7.16C11.0773 7.48 9.91729 8.01333 8.93062 8.76C7.94396 9.48 7.15729 10.44 6.57062 11.64C6.01062 12.84 5.73062 14.2933 5.73062 16C5.73062 17.7333 6.01062 19.2 6.57062 20.4C7.13062 21.5733 7.90396 22.5333 8.89062 23.28C9.90396 24 11.0773 24.5333 12.4106 24.88C13.744 25.2 15.1973 25.36 16.7706 25.36H21.1306C22.5173 25.36 23.8373 25.2133 25.0906 24.92C26.3706 24.6 27.5173 24.12 28.5306 23.48C29.544 22.8133 30.4106 21.9733 31.1306 20.96C31.8506 19.92 32.3706 18.6667 32.6906 17.2H21.6506V14.8H35.4906V16C35.4906 18.2133 35.104 20.08 34.3306 21.6C33.5573 23.0933 32.5173 24.3067 31.2106 25.24C29.904 26.1467 28.384 26.8 26.6506 27.2C24.9173 27.6 23.0773 27.8 21.1306 27.8H16.7706C14.824 27.8 13.024 27.5867 11.3706 27.16C9.71729 26.7333 8.27729 26.0533 7.05062 25.12C5.85062 24.1867 4.90396 22.9733 4.21062 21.48C3.51729 19.9867 3.17062 18.16 3.17062 16C3.17062 13.84 3.51729 12.0133 4.21062 10.52C4.90396 9.02667 5.85062 7.81333 7.05062 6.88C8.27729 5.94667 9.71729 5.26667 11.3706 4.84C13.024 4.41333 14.824 4.2 16.7706 4.2H21.1306C22.1173 4.2 23.104 4.24 24.0906 4.32C25.0773 4.37333 26.0373 4.50667 26.9706 4.72C27.904 4.93333 28.8106 5.24 29.6906 5.64C30.5973 6.01333 31.4373 6.53333 32.2106 7.2L29.6106 9.04ZM35.6106 7.76C34.6773 6.53333 33.664 5.54666 32.5706 4.8C31.4773 4.05333 30.3173 3.46666 29.0906 3.04C27.8906 2.61333 26.624 2.33333 25.2906 2.2C23.9573 2.04 22.5706 1.96 21.1306 1.96H16.7706C14.4506 1.96 12.3306 2.22667 10.4106 2.76C8.49062 3.26666 6.82396 4.08 5.41062 5.2C4.02396 6.32 2.94396 7.77333 2.17062 9.56C1.39729 11.32 1.01062 13.4667 1.01062 16C1.01062 18.5333 1.39729 20.6933 2.17062 22.48C2.94396 24.24 4.02396 25.68 5.41062 26.8C6.82396 27.92 8.49062 28.7467 10.4106 29.28C12.3306 29.7867 14.4506 30.04 16.7706 30.04H21.1306C23.424 30.04 25.5706 29.8 27.5706 29.32C29.5973 28.8133 31.3573 28.0133 32.8506 26.92C34.344 25.8 35.5173 24.3467 36.3706 22.56C37.2506 20.7733 37.6906 18.5867 37.6906 16V12.6H19.4106V19.4H29.8106C29.384 20.12 28.8373 20.72 28.1706 21.2C27.504 21.68 26.7706 22.0667 25.9706 22.36C25.1973 22.6267 24.384 22.8267 23.5306 22.96C22.704 23.0667 21.904 23.12 21.1306 23.12H16.7706C15.5706 23.12 14.4373 23 13.3706 22.76C12.304 22.52 11.3706 22.1333 10.5706 21.6C9.77062 21.04 9.13062 20.3067 8.65062 19.4C8.17062 18.4933 7.93062 17.36 7.93062 16C7.93062 14.6667 8.17062 13.5467 8.65062 12.64C9.13062 11.7333 9.77062 11 10.5706 10.44C11.3973 9.88 12.344 9.48 13.4106 9.24C14.4773 9 15.5973 8.88 16.7706 8.88H21.1306C22.704 8.88 24.2106 9.13333 25.6506 9.64C27.0906 10.12 28.3706 10.9467 29.4906 12.12L35.6106 7.76ZM7.41062 30.64C5.91729 29.36 4.69062 28.1467 3.73062 27C2.77062 25.8533 2.01062 24.7067 1.45062 23.56C0.91729 22.3867 0.543957 21.2 0.330624 20C0.11729 18.7733 0.0106235 17.44 0.0106235 16C0.0106235 13.28 0.423957 10.9733 1.25062 9.08C2.07729 7.16 3.22396 5.6 4.69062 4.4C6.18396 3.2 7.95729 2.33333 10.0106 1.8C12.064 1.24 14.3173 0.96 16.7706 0.96H21.1306C22.5973 0.96 24.0106 1.02667 25.3706 1.16C26.7306 1.29333 28.0506 1.57333 29.3306 2C30.6106 2.4 31.8373 3.01333 33.0106 3.84C34.2106 4.64 35.3706 5.72 36.4906 7.08C37.2906 7.88 37.944 8.54667 38.4506 9.08C38.9573 9.61333 39.3573 10.0667 39.6506 10.44C39.9706 10.8133 40.2106 11.12 40.3706 11.36C40.5573 11.5733 40.7173 11.7733 40.8506 11.96L39.6506 12.8L42.5706 15.72V20C42.5706 22.7467 42.1173 25.0667 41.2106 26.96C40.304 28.8533 39.064 30.3867 37.4906 31.56C35.9173 32.76 34.064 33.6133 31.9306 34.12C29.824 34.6533 27.5573 34.92 25.1306 34.92H20.7706C18.0506 34.92 15.5173 34.5733 13.1706 33.88C10.824 33.2133 8.90396 32.1333 7.41062 30.64ZM18.4106 14C17.6106 14.1333 16.864 14.3467 16.1706 14.64C15.504 14.9067 14.9173 15.28 14.4106 15.76C13.904 16.24 13.504 16.84 13.2106 17.56C12.944 18.2533 12.8106 19.0667 12.8106 20C12.8106 20.64 12.864 21.1733 12.9706 21.6C13.5306 21.7867 14.1306 21.92 14.7706 22C15.4106 22.08 16.0773 22.12 16.7706 22.12H20.3706L18.4106 20.4V14ZM64.2987 25.36C65.8454 25.36 67.2854 25.2 68.6187 24.88C69.9787 24.5333 71.1521 24 72.1387 23.28C73.1521 22.5333 73.9387 21.5733 74.4987 20.4C75.0587 19.2 75.3387 17.7333 75.3387 16C75.3387 14.2933 75.0454 12.84 74.4587 11.64C73.8987 10.44 73.1254 9.48 72.1387 8.76C71.1521 8.01333 69.9787 7.48 68.6187 7.16C67.2854 6.81333 65.8454 6.64 64.2987 6.64H59.8987C58.3254 6.64 56.8587 6.81333 55.4987 7.16C54.1654 7.48 53.0054 8.01333 52.0187 8.76C51.0321 9.48 50.2454 10.44 49.6587 11.64C49.0987 12.84 48.8187 14.2933 48.8187 16C48.8187 17.7333 49.0987 19.2 49.6587 20.4C50.2454 21.5733 51.0321 22.5333 52.0187 23.28C53.0054 24.0267 54.1654 24.56 55.4987 24.88C56.8587 25.2 58.3254 25.36 59.8987 25.36H64.2987ZM59.8987 23.12C58.6987 23.12 57.5654 23 56.4987 22.76C55.4321 22.52 54.4987 22.1333 53.6987 21.6C52.8987 21.04 52.2587 20.3067 51.7787 19.4C51.2987 18.4933 51.0587 17.36 51.0587 16C51.0587 14.6667 51.2987 13.5467 51.7787 12.64C52.2587 11.7333 52.8987 11 53.6987 10.44C54.5254 9.88 55.4721 9.48 56.5387 9.24C57.6054 9 58.7254 8.88 59.8987 8.88H64.2987C65.4721 8.88 66.5921 9 67.6587 9.24C68.7254 9.48 69.6587 9.88 70.4587 10.44C71.2587 11 71.8987 11.7333 72.3787 12.64C72.8587 13.5467 73.0987 14.6667 73.0987 16C73.0987 17.3333 72.8587 18.4533 72.3787 19.36C71.9254 20.2667 71.2987 21 70.4987 21.56C69.6987 22.12 68.7654 22.52 67.6987 22.76C66.6321 23 65.4987 23.12 64.2987 23.12H59.8987ZM46.2987 16C46.2987 13.84 46.6321 12.0133 47.2987 10.52C47.9921 9.02667 48.9387 7.81333 50.1387 6.88C51.3654 5.92 52.8054 5.24 54.4587 4.84C56.1387 4.41333 57.9521 4.2 59.8987 4.2H64.2987C66.2454 4.2 68.0454 4.41333 69.6987 4.84C71.3521 5.26667 72.7787 5.94667 73.9787 6.88C75.2054 7.81333 76.1521 9.02667 76.8187 10.52C77.5121 12.0133 77.8587 13.84 77.8587 16C77.8587 18.16 77.5121 19.9867 76.8187 21.48C76.1521 22.9733 75.2054 24.1867 73.9787 25.12C72.7787 26.0533 71.3521 26.7333 69.6987 27.16C68.0454 27.5867 66.2454 27.8 64.2987 27.8H59.8987C57.9521 27.8 56.1387 27.6 54.4587 27.2C52.8054 26.7733 51.3654 26.0933 50.1387 25.16C48.9387 24.2 47.9921 22.9733 47.2987 21.48C46.6321 19.9867 46.2987 18.16 46.2987 16ZM44.0587 16C44.0587 18.5333 44.4454 20.6933 45.2187 22.48C46.0187 24.24 47.1121 25.68 48.4987 26.8C49.9121 27.92 51.5787 28.7467 53.4987 29.28C55.4454 29.7867 57.5787 30.04 59.8987 30.04H64.2987C66.6187 30.04 68.7387 29.7867 70.6587 29.28C72.5787 28.7467 74.2321 27.92 75.6187 26.8C77.0321 25.68 78.1254 24.24 78.8987 22.48C79.6721 20.6933 80.0587 18.5333 80.0587 16C80.0587 13.4667 79.6721 11.32 78.8987 9.56C78.1254 7.77333 77.0321 6.32 75.6187 5.2C74.2321 4.08 72.5787 3.26666 70.6587 2.76C68.7387 2.22667 66.6187 1.96 64.2987 1.96H59.8987C57.5787 1.96 55.4454 2.22667 53.4987 2.76C51.5787 3.26666 49.9121 4.08 48.4987 5.2C47.1121 6.32 46.0187 7.77333 45.2187 9.56C44.4454 11.32 44.0587 13.4667 44.0587 16ZM43.0587 16C43.0587 13.28 43.4721 10.9733 44.2987 9.08C45.1254 7.16 46.2854 5.6 47.7787 4.4C49.2721 3.2 51.0454 2.33333 53.0987 1.8C55.1787 1.24 57.4454 0.96 59.8987 0.96H64.2987C65.8454 0.96 67.2987 1.05333 68.6587 1.24C70.0454 1.4 71.4054 1.76 72.7387 2.32C74.0721 2.85333 75.3921 3.62667 76.6987 4.64C78.0321 5.62667 79.4054 6.96 80.8187 8.64C82.0187 9.84 83.0054 11.4267 83.7787 13.4C84.5521 15.3733 84.9388 17.5733 84.9388 20C84.9388 22.6933 84.5254 24.9867 83.6987 26.88C82.8988 28.7733 81.7521 30.3067 80.2587 31.48C78.7921 32.68 77.0321 33.5467 74.9787 34.08C72.9521 34.64 70.7254 34.92 68.2987 34.92H63.8987C61.1787 34.92 58.6454 34.6133 56.2987 34C53.9521 33.3867 52.0187 32.3333 50.4987 30.84C48.9787 29.5067 47.7387 28.2533 46.7787 27.08C45.8187 25.88 45.0587 24.6933 44.4987 23.52C43.9654 22.3467 43.5921 21.1467 43.3787 19.92C43.1654 18.6933 43.0587 17.3867 43.0587 16ZM64.2987 22.12C65.3387 22.12 66.3254 22.0267 67.2587 21.84C68.2187 21.6267 69.0587 21.28 69.7787 20.8C70.4987 20.32 71.0587 19.6933 71.4587 18.92C71.8854 18.12 72.0987 17.1467 72.0987 16C72.0987 15.36 72.0187 14.7733 71.8587 14.24C70.7654 13.92 69.5787 13.76 68.2987 13.76H63.8987C62.8321 13.76 61.8187 13.8667 60.8587 14.08C59.8987 14.2933 59.0454 14.64 58.2987 15.12C57.5787 15.6 57.0054 16.24 56.5787 17.04C56.1521 17.84 55.9387 18.8267 55.9387 20C55.9387 20.64 55.9921 21.1733 56.0987 21.6C56.6587 21.7867 57.2587 21.92 57.8987 22C58.5387 22.08 59.2054 22.12 59.8987 22.12H64.2987ZM105.625 25.36C107.172 25.36 108.612 25.2 109.945 24.88C111.305 24.5333 112.479 24 113.465 23.28C114.479 22.5333 115.265 21.5733 115.825 20.4C116.385 19.2 116.665 17.7333 116.665 16C116.665 14.2933 116.372 12.84 115.785 11.64C115.225 10.44 114.452 9.48 113.465 8.76C112.479 8.01333 111.305 7.48 109.945 7.16C108.612 6.81333 107.172 6.64 105.625 6.64H101.225C99.652 6.64 98.1853 6.81333 96.8253 7.16C95.492 7.48 94.332 8.01333 93.3453 8.76C92.3586 9.48 91.572 10.44 90.9853 11.64C90.4253 12.84 90.1453 14.2933 90.1453 16C90.1453 17.7333 90.4253 19.2 90.9853 20.4C91.572 21.5733 92.3586 22.5333 93.3453 23.28C94.332 24.0267 95.492 24.56 96.8253 24.88C98.1853 25.2 99.652 25.36 101.225 25.36H105.625ZM101.225 23.12C100.025 23.12 98.892 23 97.8253 22.76C96.7586 22.52 95.8253 22.1333 95.0253 21.6C94.2253 21.04 93.5853 20.3067 93.1053 19.4C92.6253 18.4933 92.3853 17.36 92.3853 16C92.3853 14.6667 92.6253 13.5467 93.1053 12.64C93.5853 11.7333 94.2253 11 95.0253 10.44C95.852 9.88 96.7986 9.48 97.8653 9.24C98.932 9 100.052 8.88 101.225 8.88H105.625C106.799 8.88 107.919 9 108.985 9.24C110.052 9.48 110.985 9.88 111.785 10.44C112.585 11 113.225 11.7333 113.705 12.64C114.185 13.5467 114.425 14.6667 114.425 16C114.425 17.3333 114.185 18.4533 113.705 19.36C113.252 20.2667 112.625 21 111.825 21.56C111.025 22.12 110.092 22.52 109.025 22.76C107.959 23 106.825 23.12 105.625 23.12H101.225ZM87.6253 16C87.6253 13.84 87.9586 12.0133 88.6253 10.52C89.3186 9.02667 90.2653 7.81333 91.4653 6.88C92.692 5.92 94.132 5.24 95.7853 4.84C97.4653 4.41333 99.2786 4.2 101.225 4.2H105.625C107.572 4.2 109.372 4.41333 111.025 4.84C112.679 5.26667 114.105 5.94667 115.305 6.88C116.532 7.81333 117.479 9.02667 118.145 10.52C118.839 12.0133 119.185 13.84 119.185 16C119.185 18.16 118.839 19.9867 118.145 21.48C117.479 22.9733 116.532 24.1867 115.305 25.12C114.105 26.0533 112.679 26.7333 111.025 27.16C109.372 27.5867 107.572 27.8 105.625 27.8H101.225C99.2786 27.8 97.4653 27.6 95.7853 27.2C94.132 26.7733 92.692 26.0933 91.4653 25.16C90.2653 24.2 89.3186 22.9733 88.6253 21.48C87.9586 19.9867 87.6253 18.16 87.6253 16ZM85.3853 16C85.3853 18.5333 85.772 20.6933 86.5453 22.48C87.3453 24.24 88.4386 25.68 89.8253 26.8C91.2386 27.92 92.9053 28.7467 94.8253 29.28C96.772 29.7867 98.9053 30.04 101.225 30.04H105.625C107.945 30.04 110.065 29.7867 111.985 29.28C113.905 28.7467 115.559 27.92 116.945 26.8C118.359 25.68 119.452 24.24 120.225 22.48C120.999 20.6933 121.385 18.5333 121.385 16C121.385 13.4667 120.999 11.32 120.225 9.56C119.452 7.77333 118.359 6.32 116.945 5.2C115.559 4.08 113.905 3.26666 111.985 2.76C110.065 2.22667 107.945 1.96 105.625 1.96H101.225C98.9053 1.96 96.772 2.22667 94.8253 2.76C92.9053 3.26666 91.2386 4.08 89.8253 5.2C88.4386 6.32 87.3453 7.77333 86.5453 9.56C85.772 11.32 85.3853 13.4667 85.3853 16ZM84.3853 16C84.3853 13.28 84.7986 10.9733 85.6253 9.08C86.452 7.16 87.612 5.6 89.1053 4.4C90.5986 3.2 92.372 2.33333 94.4253 1.8C96.5053 1.24 98.772 0.96 101.225 0.96H105.625C107.172 0.96 108.625 1.05333 109.985 1.24C111.372 1.4 112.732 1.76 114.065 2.32C115.399 2.85333 116.719 3.62667 118.025 4.64C119.359 5.62667 120.732 6.96 122.145 8.64C123.345 9.84 124.332 11.4267 125.105 13.4C125.879 15.3733 126.265 17.5733 126.265 20C126.265 22.6933 125.852 24.9867 125.025 26.88C124.225 28.7733 123.079 30.3067 121.585 31.48C120.119 32.68 118.359 33.5467 116.305 34.08C114.279 34.64 112.052 34.92 109.625 34.92H105.225C102.505 34.92 99.972 34.6133 97.6253 34C95.2786 33.3867 93.3453 32.3333 91.8253 30.84C90.3053 29.5067 89.0653 28.2533 88.1053 27.08C87.1453 25.88 86.3853 24.6933 85.8253 23.52C85.292 22.3467 84.9186 21.1467 84.7053 19.92C84.492 18.6933 84.3853 17.3867 84.3853 16ZM105.625 22.12C106.665 22.12 107.652 22.0267 108.585 21.84C109.545 21.6267 110.385 21.28 111.105 20.8C111.825 20.32 112.385 19.6933 112.785 18.92C113.212 18.12 113.425 17.1467 113.425 16C113.425 15.36 113.345 14.7733 113.185 14.24C112.092 13.92 110.905 13.76 109.625 13.76H105.225C104.159 13.76 103.145 13.8667 102.185 14.08C101.225 14.2933 100.372 14.64 99.6253 15.12C98.9053 15.6 98.332 16.24 97.9053 17.04C97.4786 17.84 97.2653 18.8267 97.2653 20C97.2653 20.64 97.3186 21.1733 97.4253 21.6C97.9853 21.7867 98.5853 21.92 99.2253 22C99.8653 22.08 100.532 22.12 101.225 22.12H105.625ZM147.304 25.36C148.851 25.36 150.304 25.2 151.664 24.88C153.024 24.56 154.197 24.0267 155.184 23.28C156.197 22.5333 156.984 21.5733 157.544 20.4C158.131 19.2 158.424 17.7333 158.424 16C158.424 14.2667 158.131 12.8133 157.544 11.64C156.984 10.44 156.197 9.46667 155.184 8.72C154.197 7.97333 153.024 7.44 151.664 7.12C150.304 6.8 148.851 6.64 147.304 6.64H133.064V25.36H147.304ZM147.304 8.88C148.504 8.88 149.637 9 150.704 9.24C151.797 9.45333 152.744 9.84 153.544 10.4C154.371 10.96 155.024 11.6933 155.504 12.6C156.011 13.5067 156.264 14.64 156.264 16C156.264 17.36 156.024 18.5067 155.544 19.44C155.064 20.3467 154.411 21.08 153.584 21.64C152.757 22.1733 151.797 22.56 150.704 22.8C149.637 23.0133 148.504 23.12 147.304 23.12H135.224V8.88H147.304ZM147.304 4.2C149.251 4.2 151.051 4.41333 152.704 4.84C154.357 5.24 155.797 5.92 157.024 6.88C158.251 7.81333 159.211 9.02667 159.904 10.52C160.597 12.0133 160.944 13.84 160.944 16C160.944 18.16 160.597 19.9867 159.904 21.48C159.211 22.9733 158.251 24.2 157.024 25.16C155.797 26.0933 154.357 26.7733 152.704 27.2C151.051 27.6 149.251 27.8 147.304 27.8H130.624V4.2H147.304ZM147.304 30.04C149.624 30.04 151.744 29.7867 153.664 29.28C155.611 28.7733 157.277 27.96 158.664 26.84C160.077 25.72 161.171 24.2667 161.944 22.48C162.744 20.6933 163.144 18.5333 163.144 16C163.144 13.4667 162.744 11.3067 161.944 9.52C161.171 7.73333 160.077 6.28 158.664 5.16C157.277 4.04 155.611 3.22666 153.664 2.72C151.744 2.21333 149.624 1.96 147.304 1.96H128.424V30.04H147.304ZM127.424 0.96H147.304C148.824 0.96 150.291 1.04 151.704 1.2C153.117 1.33333 154.504 1.65333 155.864 2.16C157.251 2.66666 158.624 3.41333 159.984 4.4C161.371 5.38666 162.784 6.72 164.224 8.4C165.424 9.6 166.357 11.24 167.024 13.32C167.691 15.3733 168.024 17.6 168.024 20C168.024 22.6933 167.611 24.9867 166.784 26.88C165.957 28.7733 164.797 30.3067 163.304 31.48C161.837 32.68 160.077 33.5467 158.024 34.08C155.971 34.64 153.731 34.92 151.304 34.92H131.544L127.424 31.04V0.96ZM140.104 22.12H147.304C148.371 22.12 149.384 22.0267 150.344 21.84C151.304 21.6267 152.144 21.2933 152.864 20.84C153.611 20.36 154.197 19.7333 154.624 18.96C155.051 18.16 155.264 17.1733 155.264 16C155.264 15.4133 155.197 14.8267 155.064 14.24C153.891 13.92 152.637 13.76 151.304 13.76H140.104V22.12ZM41.4075 49.04C40.2075 48.1333 38.8608 47.5067 37.3675 47.16C35.9008 46.8133 34.4208 46.64 32.9275 46.64H28.5675C27.0208 46.64 25.5675 46.8133 24.2075 47.16C22.8742 47.48 21.7142 48.0133 20.7275 48.76C19.7408 49.48 18.9542 50.44 18.3675 51.64C17.8075 52.84 17.5275 54.2933 17.5275 56C17.5275 57.7333 17.8075 59.2 18.3675 60.4C18.9275 61.5733 19.7008 62.5333 20.6875 63.28C21.7008 64 22.8742 64.5333 24.2075 64.88C25.5408 65.2 26.9942 65.36 28.5675 65.36H32.9275C34.3142 65.36 35.6342 65.2133 36.8875 64.92C38.1675 64.6 39.3142 64.12 40.3275 63.48C41.3408 62.8133 42.2075 61.9733 42.9275 60.96C43.6475 59.92 44.1675 58.6667 44.4875 57.2H33.4475V54.8H47.2875V56C47.2875 58.2133 46.9008 60.08 46.1275 61.6C45.3542 63.0933 44.3142 64.3067 43.0075 65.24C41.7008 66.1467 40.1808 66.8 38.4475 67.2C36.7142 67.6 34.8742 67.8 32.9275 67.8H28.5675C26.6208 67.8 24.8208 67.5867 23.1675 67.16C21.5142 66.7333 20.0742 66.0533 18.8475 65.12C17.6475 64.1867 16.7008 62.9733 16.0075 61.48C15.3142 59.9867 14.9675 58.16 14.9675 56C14.9675 53.84 15.3142 52.0133 16.0075 50.52C16.7008 49.0267 17.6475 47.8133 18.8475 46.88C20.0742 45.9467 21.5142 45.2667 23.1675 44.84C24.8208 44.4133 26.6208 44.2 28.5675 44.2H32.9275C33.9142 44.2 34.9008 44.24 35.8875 44.32C36.8742 44.3733 37.8342 44.5067 38.7675 44.72C39.7008 44.9333 40.6075 45.24 41.4875 45.64C42.3942 46.0133 43.2342 46.5333 44.0075 47.2L41.4075 49.04ZM47.4075 47.76C46.4742 46.5333 45.4608 45.5467 44.3675 44.8C43.2742 44.0533 42.1142 43.4667 40.8875 43.04C39.6875 42.6133 38.4208 42.3333 37.0875 42.2C35.7542 42.04 34.3675 41.96 32.9275 41.96H28.5675C26.2475 41.96 24.1275 42.2267 22.2075 42.76C20.2875 43.2667 18.6208 44.08 17.2075 45.2C15.8208 46.32 14.7408 47.7733 13.9675 49.56C13.1942 51.32 12.8075 53.4667 12.8075 56C12.8075 58.5333 13.1942 60.6933 13.9675 62.48C14.7408 64.24 15.8208 65.68 17.2075 66.8C18.6208 67.92 20.2875 68.7467 22.2075 69.28C24.1275 69.7867 26.2475 70.04 28.5675 70.04H32.9275C35.2208 70.04 37.3675 69.8 39.3675 69.32C41.3942 68.8133 43.1542 68.0133 44.6475 66.92C46.1408 65.8 47.3142 64.3467 48.1675 62.56C49.0475 60.7733 49.4875 58.5867 49.4875 56V52.6H31.2075V59.4H41.6075C41.1808 60.12 40.6342 60.72 39.9675 61.2C39.3008 61.68 38.5675 62.0667 37.7675 62.36C36.9942 62.6267 36.1808 62.8267 35.3275 62.96C34.5008 63.0667 33.7008 63.12 32.9275 63.12H28.5675C27.3675 63.12 26.2342 63 25.1675 62.76C24.1008 62.52 23.1675 62.1333 22.3675 61.6C21.5675 61.04 20.9275 60.3067 20.4475 59.4C19.9675 58.4933 19.7275 57.36 19.7275 56C19.7275 54.6667 19.9675 53.5467 20.4475 52.64C20.9275 51.7333 21.5675 51 22.3675 50.44C23.1942 49.88 24.1408 49.48 25.2075 49.24C26.2742 49 27.3942 48.88 28.5675 48.88H32.9275C34.5008 48.88 36.0075 49.1333 37.4475 49.64C38.8875 50.12 40.1675 50.9467 41.2875 52.12L47.4075 47.76ZM19.2075 70.64C17.7142 69.36 16.4875 68.1467 15.5275 67C14.5675 65.8533 13.8075 64.7067 13.2475 63.56C12.7142 62.3867 12.3408 61.2 12.1275 60C11.9142 58.7733 11.8075 57.44 11.8075 56C11.8075 53.28 12.2208 50.9733 13.0475 49.08C13.8742 47.16 15.0208 45.6 16.4875 44.4C17.9808 43.2 19.7542 42.3333 21.8075 41.8C23.8608 41.24 26.1142 40.96 28.5675 40.96H32.9275C34.3942 40.96 35.8075 41.0267 37.1675 41.16C38.5275 41.2933 39.8475 41.5733 41.1275 42C42.4075 42.4 43.6342 43.0133 44.8075 43.84C46.0075 44.64 47.1675 45.72 48.2875 47.08C49.0875 47.88 49.7408 48.5467 50.2475 49.08C50.7542 49.6133 51.1542 50.0667 51.4475 50.44C51.7675 50.8133 52.0075 51.12 52.1675 51.36C52.3542 51.5733 52.5142 51.7733 52.6475 51.96L51.4475 52.8L54.3675 55.72V60C54.3675 62.7467 53.9142 65.0667 53.0075 66.96C52.1008 68.8533 50.8608 70.3867 49.2875 71.56C47.7142 72.76 45.8608 73.6133 43.7275 74.12C41.6208 74.6533 39.3542 74.92 36.9275 74.92H32.5675C29.8475 74.92 27.3142 74.5733 24.9675 73.88C22.6208 73.2133 20.7008 72.1333 19.2075 70.64ZM30.2075 54C29.4075 54.1333 28.6608 54.3467 27.9675 54.64C27.3008 54.9067 26.7142 55.28 26.2075 55.76C25.7008 56.24 25.3008 56.84 25.0075 57.56C24.7408 58.2533 24.6075 59.0667 24.6075 60C24.6075 60.64 24.6608 61.1733 24.7675 61.6C25.3275 61.7867 25.9275 61.92 26.5675 62C27.2075 62.08 27.8742 62.12 28.5675 62.12H32.1675L30.2075 60.4V54ZM80.1881 48.88C80.5081 48.88 80.8415 48.9067 81.1881 48.96C81.5348 49.0133 81.8548 49.1067 82.1481 49.24C82.4415 49.3733 82.6815 49.56 82.8681 49.8C83.0815 50.04 83.1881 50.36 83.1881 50.76C83.1881 51.1333 83.0815 51.44 82.8681 51.68C82.6548 51.92 82.3881 52.1067 82.0681 52.24C81.7748 52.3733 81.4415 52.4667 81.0681 52.52C80.7215 52.5733 80.4148 52.6 80.1481 52.6H65.3481V48.88H80.1881ZM80.1481 54.8C80.7881 54.8 81.4148 54.7333 82.0281 54.6C82.6681 54.44 83.2415 54.2 83.7481 53.88C84.2548 53.56 84.6548 53.1467 84.9481 52.64C85.2681 52.1067 85.4281 51.48 85.4281 50.76C85.4281 50.0133 85.2815 49.3733 84.9881 48.84C84.6948 48.3067 84.2948 47.88 83.7881 47.56C83.3081 47.24 82.7481 47.0133 82.1081 46.88C81.4948 46.72 80.8548 46.64 80.1881 46.64H63.1481V54.8H80.1481ZM83.7881 56.6C83.4148 56.8133 83.0015 56.9733 82.5481 57.08C82.0948 57.1867 81.6681 57.2933 81.2681 57.4C82.7615 59.16 84.2548 60.8933 85.7481 62.6C87.2681 64.3067 88.7881 66.04 90.3081 67.8H87.0681L77.8281 57.2H63.1481V67.8H60.6681V44.2H80.1881C81.2815 44.2 82.2948 44.32 83.2281 44.56C84.1881 44.8 85.0015 45.1867 85.6681 45.72C86.3615 46.2533 86.8948 46.9333 87.2681 47.76C87.6681 48.5867 87.8681 49.5867 87.8681 50.76C87.8681 52.2267 87.5348 53.44 86.8681 54.4C86.2015 55.3333 85.1881 56.0667 83.8281 56.6H83.7881ZM90.1081 50.76C90.1081 49.24 89.8681 47.9333 89.3881 46.84C88.9081 45.72 88.2281 44.8 87.3481 44.08C86.4681 43.36 85.4148 42.8267 84.1881 42.48C82.9881 42.1333 81.6548 41.96 80.1881 41.96H58.5081V70.04H65.3481V59.4H76.7881L85.9881 70.04H95.1881L85.1081 58.48C88.4415 57.0133 90.1081 54.44 90.1081 50.76ZM57.5081 71.04V40.96H80.1881C81.2281 40.96 82.2281 41.04 83.1881 41.2C84.1481 41.3333 85.1081 41.6267 86.0681 42.08C87.0548 42.5333 88.0681 43.1867 89.1081 44.04C90.1748 44.8933 91.3081 46.0267 92.5081 47.44C93.2815 48.2133 93.8815 49.2533 94.3081 50.56C94.7615 51.84 94.9881 53.24 94.9881 54.76C94.9881 56.52 94.6015 58.08 93.8281 59.44C93.0815 60.8 91.9881 61.9067 90.5481 62.76C91.3748 63.72 92.2415 64.72 93.1481 65.76C94.0548 66.8 94.9615 67.8533 95.8681 68.92C96.7748 69.96 97.6681 70.9867 98.5481 72C99.4548 73.04 100.308 74.0133 101.108 74.92H89.5881L85.5481 71.04L79.7081 64.28H70.2281V74.92H61.6281L57.5081 71.04ZM102.799 44.2H105.199V67.8H102.799V44.2ZM107.399 41.96H100.599V70.04H107.399V41.96ZM99.5991 71.04V40.96H108.399L112.279 45.08V74.92H103.719L99.5991 71.04ZM135.507 65.36C137.054 65.36 138.507 65.2 139.867 64.88C141.227 64.56 142.401 64.0267 143.387 63.28C144.401 62.5333 145.187 61.5733 145.747 60.4C146.334 59.2 146.627 57.7333 146.627 56C146.627 54.2667 146.334 52.8133 145.747 51.64C145.187 50.44 144.401 49.4667 143.387 48.72C142.401 47.9733 141.227 47.44 139.867 47.12C138.507 46.8 137.054 46.64 135.507 46.64H121.267V65.36H135.507ZM135.507 48.88C136.707 48.88 137.841 49 138.907 49.24C140.001 49.4533 140.947 49.84 141.747 50.4C142.574 50.96 143.227 51.6933 143.707 52.6C144.214 53.5067 144.467 54.64 144.467 56C144.467 57.36 144.227 58.5067 143.747 59.44C143.267 60.3467 142.614 61.08 141.787 61.64C140.961 62.1733 140.001 62.56 138.907 62.8C137.841 63.0133 136.707 63.12 135.507 63.12H123.427V48.88H135.507ZM135.507 44.2C137.454 44.2 139.254 44.4133 140.907 44.84C142.561 45.24 144.001 45.92 145.227 46.88C146.454 47.8133 147.414 49.0267 148.107 50.52C148.801 52.0133 149.147 53.84 149.147 56C149.147 58.16 148.801 59.9867 148.107 61.48C147.414 62.9733 146.454 64.2 145.227 65.16C144.001 66.0933 142.561 66.7733 140.907 67.2C139.254 67.6 137.454 67.8 135.507 67.8H118.827V44.2H135.507ZM135.507 70.04C137.827 70.04 139.947 69.7867 141.867 69.28C143.814 68.7733 145.481 67.96 146.867 66.84C148.281 65.72 149.374 64.2667 150.147 62.48C150.947 60.6933 151.347 58.5333 151.347 56C151.347 53.4667 150.947 51.3067 150.147 49.52C149.374 47.7333 148.281 46.28 146.867 45.16C145.481 44.04 143.814 43.2267 141.867 42.72C139.947 42.2133 137.827 41.96 135.507 41.96H116.627V70.04H135.507ZM115.627 40.96H135.507C137.027 40.96 138.494 41.04 139.907 41.2C141.321 41.3333 142.707 41.6533 144.067 42.16C145.454 42.6667 146.827 43.4133 148.187 44.4C149.574 45.3867 150.987 46.72 152.427 48.4C153.627 49.6 154.561 51.24 155.227 53.32C155.894 55.3733 156.227 57.6 156.227 60C156.227 62.6933 155.814 64.9867 154.987 66.88C154.161 68.7733 153.001 70.3067 151.507 71.48C150.041 72.68 148.281 73.5467 146.227 74.08C144.174 74.64 141.934 74.92 139.507 74.92H119.747L115.627 71.04V40.96ZM128.307 62.12H135.507C136.574 62.12 137.587 62.0267 138.547 61.84C139.507 61.6267 140.347 61.2933 141.067 60.84C141.814 60.36 142.401 59.7333 142.827 58.96C143.254 58.16 143.467 57.1733 143.467 56C143.467 55.4133 143.401 54.8267 143.267 54.24C142.094 53.92 140.841 53.76 139.507 53.76H128.307V62.12Z" fill="url(#paint0_linear_4_3)"/>
<defs>
<linearGradient id="paint0_linear_4_3" x1="-13.2973" y1="40" x2="167.851" y2="40" gradientUnits="userSpaceOnUse">
<stop stop-color="#A953F4"/>
<stop offset="1" stop-color="#CD2675"/>
</linearGradient>
</defs>
</svg>
